<?xml version="1.0" standalone="no"?>
<!DOCTYPE svg PUBLIC "-//W3C//DTD SVG 20010904//EN"
 "http://www.w3.org/TR/2001/REC-SVG-20010904/DTD/svg10.dtd">
<svg version="1.0" xmlns="http://www.w3.org/2000/svg"
 width="264.000000pt" height="332.000000pt" viewBox="0 0 264.000000 332.000000"
 preserveAspectRatio="xMidYMid meet">

<g transform="translate(0.000000,332.000000) scale(0.100000,-0.100000)"
fill="#000000" stroke="none">
<path d="M22 3312 l-23 -3 3 -1022 3 -1022 46 -132 c83 -235 178 -384 373
-579 234 -233 539 -422 836 -517 l65 -21 95 33 c126 43 353 156 463 229 227
151 429 343 547 521 64 95 129 228 172 351 l33 95 3 1035 3 1035 -1298 0
c-714 0 -1308 -1 -1321 -3z m1310 -314 c2 -18 12 -25 43 -31 22 -5 47 -13 55
-17 23 -12 14 -56 -20 -99 -36 -44 -33 -61 11 -61 25 0 35 9 64 55 34 53 76
85 110 85 26 0 75 -55 75 -84 0 -14 -5 -36 -11 -50 -13 -28 -39 -43 -39 -22 0
8 -6 16 -12 19 -10 3 -8 10 6 25 22 25 15 66 -13 82 -30 16 -48 2 -76 -55 -14
-30 -34 -60 -45 -68 -25 -18 -16 -27 27 -27 91 0 203 -113 203 -206 0 -28 -8
-53 -25 -78 -14 -20 -25 -39 -25 -41 0 -3 17 -5 38 -5 34 0 41 -4 57 -34 16
-29 16 -40 7 -79 -7 -25 -9 -52 -6 -60 7 -20 -52 -28 -91 -12 -71 29 -82 94
-35 211 36 87 42 142 21 191 -14 35 -53 54 -151 73 -70 14 -130 47 -155 87
-11 18 -22 32 -25 32 -3 0 -14 -14 -25 -32 -24 -38 -83 -72 -150 -87 -98 -22
-132 -39 -149 -74 -23 -50 -20 -89 16 -169 41 -95 47 -155 19 -202 -19 -33
-20 -38 -6 -65 21 -41 0 -49 -24 -9 -15 25 -22 29 -26 17 -3 -8 -5 -21 -3 -28
2 -7 -2 -14 -9 -17 -8 -3 -11 5 -10 23 2 22 -3 29 -22 33 -16 5 -25 14 -27 32
-2 23 1 25 22 21 13 -2 24 0 24 5 0 6 -27 67 -60 136 -33 70 -60 134 -60 142
0 39 26 5 76 -100 33 -69 61 -115 69 -115 8 0 15 -9 15 -20 0 -25 26 -26 39
-1 7 13 7 29 0 50 -13 38 -25 40 -33 6 -10 -38 -29 -19 -23 21 4 25 -1 48 -20
84 -31 59 -27 96 17 162 39 59 98 99 155 106 48 5 67 18 40 28 -9 4 -29 33
-46 65 -16 33 -35 60 -42 60 -25 3 -42 -3 -54 -19 -17 -23 -16 -42 4 -64 14
-16 15 -21 4 -27 -8 -5 -10 -14 -7 -20 14 -23 -13 -10 -33 15 -36 46 -24 102
27 128 44 22 90 1 129 -58 38 -58 55 -70 89 -62 31 8 30 26 -2 57 -55 51 -51
109 7 109 41 0 69 16 69 40 0 27 18 25 22 -2z m7 -252 c7 -8 26 -18 42 -21 37
-8 44 -20 25 -46 -12 -18 -26 -22 -83 -24 -62 -1 -71 1 -86 22 -20 26 -15 43
12 43 11 0 29 9 42 20 29 23 33 24 48 6z m116 -129 c17 -1 37 -6 45 -12 8 -5
24 -10 35 -10 30 0 31 -31 1 -39 -41 -10 -60 -48 -53 -109 7 -75 31 -127 56
-127 23 0 28 15 9 23 -8 3 -6 6 5 6 11 1 17 -6 17 -19 0 -18 -10 -24 -31 -22
-7 1 -14 -16 -41 -98 -13 -39 -22 -48 -63 -68 -94 -45 -235 -20 -270 49 -20
38 -20 99 0 99 18 0 20 17 3 23 -7 2 -18 -5 -25 -17 -11 -18 -12 -18 -13 -3 0
14 -5 16 -25 11 -22 -5 -25 -3 -25 20 0 17 5 26 16 26 14 0 14 -3 4 -15 -10
-13 -9 -15 9 -15 11 0 26 9 33 19 6 10 17 17 23 14 7 -2 15 3 19 13 5 12 2 15
-10 10 -12 -5 -15 0 -12 22 3 23 7 27 30 24 14 -1 29 2 33 8 4 6 -6 10 -24 10
-24 0 -31 4 -31 20 0 16 7 20 30 20 17 0 30 5 30 11 0 6 -15 9 -37 7 -29 -2
-38 1 -41 15 -3 14 4 17 37 17 23 0 41 5 41 10 0 6 -26 9 -65 8 -50 -2 -68 1
-75 12 -14 21 -6 36 16 32 77 -11 113 -12 119 -3 3 6 1 11 -6 11 -19 0 2 17
26 22 17 3 103 1 210 -5z m-285 -7 c0 -5 -4 -10 -10 -10 -5 0 -10 5 -10 10 0
6 5 10 10 10 6 0 10 -4 10 -10z m-50 -101 c0 -5 -7 -9 -15 -9 -15 0 -20 12 -9
23 8 8 24 -1 24 -14z m440 11 c0 -5 -7 -10 -15 -10 -8 0 -15 5 -15 10 0 6 7
10 15 10 8 0 15 -4 15 -10z m-435 -50 c7 -12 -12 -50 -25 -50 -6 0 -10 14 -10
30 0 30 21 42 35 20z m433 -12 c-2 -13 -10 -23 -18 -23 -8 0 -16 10 -18 23 -3
17 2 22 18 22 16 0 21 -5 18 -22z m202 -8 c0 -5 -4 -10 -10 -10 -5 0 -10 5
-10 10 0 6 5 10 10 10 6 0 10 -4 10 -10z m-642 -61 c1 -9 -5 -15 -16 -15 -13
0 -18 6 -14 19 5 20 26 18 30 -4z m442 6 c0 -8 -7 -15 -15 -15 -8 0 -15 7 -15
15 0 8 7 15 15 15 8 0 15 -7 15 -15z m-455 -126 c10 -15 -1 -23 -20 -15 -9 3
-13 10 -10 16 8 13 22 13 30 -1z m475 1 c0 -12 -28 -25 -36 -17 -9 9 6 27 22
27 8 0 14 -5 14 -10z m-462 -52 c16 -16 15 -25 -5 -32 -17 -7 -33 9 -33 32 0
15 22 16 38 0z m449 -4 c8 -20 -8 -36 -26 -25 -15 10 -8 41 9 41 6 0 13 -7 17
-16z m-417 -64 c0 -14 -33 -21 -41 -8 -5 8 -2 15 9 19 19 7 32 3 32 -11z m395
10 c11 -17 -5 -32 -21 -19 -8 6 -14 15 -14 20 0 12 27 11 35 -1z m-379 -52
c-3 -13 -3 -17 0 -10 8 17 24 15 24 -2 0 -23 -20 -30 -37 -13 -16 16 -11 47 7
47 7 0 9 -9 6 -22z m349 2 c0 -21 -32 -37 -47 -22 -9 9 -8 15 8 27 22 16 39
14 39 -5z m-292 -55 c-6 -16 -16 -19 -26 -8 -9 8 13 34 24 28 4 -3 6 -12 2
-20z m232 15 c3 -5 3 -15 -1 -21 -6 -11 -23 6 -24 24 0 10 18 9 25 -3z m-165
-41 c0 -11 -6 -19 -12 -19 -23 0 -39 16 -33 32 9 22 45 11 45 -13z m123 17 c4
-9 -2 -17 -14 -21 -25 -8 -34 -1 -26 20 8 19 33 20 40 1z m-73 -16 c0 -11 -7
-20 -15 -20 -17 0 -18 2 -9 24 9 23 24 20 24 -4z m-684 -712 c4 -6 2 -14 -4
-16 -7 -2 -9 -9 -5 -15 12 -19 13 -96 2 -103 -17 -10 -20 0 -23 75 -3 54 -1
71 10 71 7 0 16 -5 20 -12z m407 -21 c-1 -15 -1 -47 -2 -72 -1 -25 -5 -45 -10
-45 -12 0 -20 81 -9 102 5 10 4 19 -2 23 -13 8 -2 27 13 22 6 -2 11 -15 10
-30z m152 1 c9 -18 18 -52 20 -76 l4 -43 -42 3 c-37 3 -42 6 -42 28 0 16 8 29
25 37 24 12 25 13 3 13 -27 0 -30 15 -7 28 11 6 13 11 5 16 -16 10 -14 26 3
26 8 0 22 -15 31 -32z m165 -33 c0 -36 0 -68 0 -72 0 -5 -17 -8 -37 -8 -32 0
-39 4 -47 28 -12 32 -1 57 32 72 11 5 23 17 25 27 3 10 10 18 16 18 7 0 11
-25 11 -65z m59 -10 c1 -61 -1 -75 -14 -75 -13 0 -15 13 -13 75 1 51 5 75 14
75 8 0 12 -24 13 -75z m150 61 c10 -12 7 -15 -16 -18 -25 -3 -28 -7 -31 -45
-3 -39 -1 -42 25 -45 36 -4 36 -22 1 -26 -61 -7 -91 76 -43 123 27 28 47 31
64 11z m489 -61 c2 -63 0 -75 -14 -75 -13 0 -15 10 -13 58 2 31 0 62 -3 68 -8
13 0 24 17 24 7 0 12 -26 13 -75z m-1658 9 c0 -47 3 -55 18 -52 13 2 18 15 20
56 2 37 7 52 18 52 10 0 14 -14 14 -58 0 -64 -11 -82 -50 -82 -39 0 -50 18
-50 82 0 45 3 58 15 58 12 0 15 -13 15 -56z m704 -24 c1 -48 -2 -60 -14 -58
-19 4 -33 94 -18 121 17 32 32 3 32 -63z m-532 36 c4 -6 8 -30 8 -53 0 -32 -4
-43 -15 -43 -11 0 -15 11 -15 40 0 50 -18 53 -22 3 -5 -61 -28 -53 -28 10 l0
54 33 0 c17 0 35 -5 39 -11z m109 -13 l11 -28 10 28 c11 31 35 31 30 1 -7 -33
-31 -84 -40 -84 -11 0 -42 72 -42 95 0 25 20 17 31 -12z m137 15 c19 -19 14
-46 -8 -50 -12 -2 -20 -7 -20 -13 1 -5 7 -9 15 -7 20 4 29 -17 11 -24 -29 -11
-65 5 -72 31 -12 49 42 95 74 63z m92 1 c0 -5 -7 -12 -15 -15 -10 -4 -15 -20
-15 -45 0 -28 -4 -39 -15 -39 -11 0 -15 13 -15 53 0 53 1 54 30 55 17 0 30 -4
30 -9z m68 -4 c-2 -5 -9 -9 -15 -9 -21 3 -15 -14 8 -21 15 -5 19 -14 17 -33
-3 -23 -8 -27 -37 -27 -20 0 -36 6 -39 14 -3 10 2 12 22 7 33 -8 34 7 1 22
-27 13 -32 31 -13 50 15 15 60 12 56 -3z m690 3 c7 -7 12 -31 12 -55 l0 -43
-39 0 c-31 0 -41 4 -46 20 -8 24 0 39 29 50 l21 9 -22 0 c-23 1 -29 11 -16 24
11 11 48 8 61 -5z m160 -47 c2 -40 0 -52 -10 -49 -7 3 -14 21 -16 41 -4 47
-22 38 -22 -9 0 -48 -24 -40 -28 9 -4 50 -22 47 -22 -4 0 -53 -24 -48 -28 5
-5 60 0 65 65 63 l58 -2 3 -54z m102 40 c16 -30 12 -39 -15 -43 -14 -2 -24 -7
-23 -13 2 -5 11 -9 21 -8 9 2 17 -4 17 -12 0 -23 -57 -19 -70 4 -14 28 -12 57
6 75 21 22 51 20 64 -3z m86 8 c3 -5 -2 -12 -10 -15 -11 -4 -16 -19 -16 -45 0
-28 -4 -39 -15 -39 -11 0 -15 13 -15 54 0 51 1 54 25 54 14 0 28 -4 31 -9z
m142 -48 c2 -40 0 -52 -10 -49 -7 3 -14 21 -16 41 -4 50 -22 47 -22 -3 0 -29
-4 -40 -15 -40 -11 0 -15 12 -15 48 0 27 3 51 6 54 3 4 20 5 37 5 31 -2 32 -3
35 -56z m100 47 c7 -7 12 -26 12 -43 0 -51 -41 -73 -74 -39 -21 20 -20 53 1
76 19 21 44 23 61 6z m-720 -446 c2 -6 -11 -18 -27 -27 -39 -20 -39 -31 -2
-38 73 -15 56 -117 -19 -117 -34 0 -70 40 -70 77 0 36 25 78 62 102 34 22 49
23 56 3z m-430 -88 c2 -26 8 -54 14 -61 16 -20 -1 -33 -43 -33 -40 0 -55 22
-24 34 8 3 15 17 15 31 0 18 -5 25 -20 25 -28 0 -25 15 7 40 37 29 47 21 51
-36z m130 40 c24 -17 29 -43 10 -62 -9 -9 -9 -15 0 -24 35 -35 -2 -86 -67 -95
-33 -5 -41 -3 -41 11 0 9 8 16 19 16 26 0 66 34 57 48 -4 7 -16 12 -26 12 -31
0 -32 18 -3 32 35 17 31 33 -9 33 -38 0 -48 22 -16 34 34 14 51 13 76 -5z
m126 10 c27 -10 38 -41 25 -65 -8 -15 -8 -24 0 -32 6 -6 11 -21 11 -34 0 -30
-54 -64 -94 -61 -36 4 -48 28 -14 28 54 0 85 55 35 62 -30 4 -32 25 -2 32 14
4 25 14 25 22 0 13 -7 15 -35 10 -30 -6 -35 -4 -35 13 0 25 47 39 84 25z"/>
<path d="M1270 2938 c0 -30 13 -58 26 -58 9 0 14 12 14 35 0 28 -4 35 -20 35
-11 0 -20 -6 -20 -12z"/>
<path d="M1330 2921 c0 -37 15 -48 29 -22 17 31 13 51 -9 51 -15 0 -20 -7 -20
-29z"/>
<path d="M1656 2392 c-2 -4 4 -13 14 -19 15 -10 19 -9 23 8 4 14 0 19 -13 19
-11 0 -21 -4 -24 -8z"/>
<path d="M1725 2367 c-4 -10 -5 -21 -1 -24 10 -10 18 4 13 24 -4 17 -4 17 -12
0z"/>
<path d="M1630 2337 c0 -26 26 -49 59 -50 50 -3 48 16 -4 41 -53 26 -55 26
-55 9z"/>
<path d="M1285 2710 c-3 -5 1 -10 9 -10 9 0 16 5 16 10 0 6 -4 10 -9 10 -6 0
-13 -4 -16 -10z"/>
<path d="M1340 2710 c0 -5 5 -10 11 -10 5 0 7 5 4 10 -3 6 -8 10 -11 10 -2 0
-4 -4 -4 -10z"/>
<path d="M1247 2604 c-12 -12 -8 -24 7 -24 8 0 17 -8 19 -17 4 -16 5 -16 6 1
1 13 6 17 22 13 15 -4 19 -1 17 11 -3 18 -57 29 -71 16z"/>
<path d="M1535 2580 c-3 -5 -1 -10 4 -10 6 0 11 5 11 10 0 6 -2 10 -4 10 -3 0
-8 -4 -11 -10z"/>
<path d="M1300 2525 c0 -8 5 -15 10 -15 6 0 10 7 10 15 0 8 -4 15 -10 15 -5 0
-10 -7 -10 -15z"/>
<path d="M1240 2520 c0 -5 5 -10 10 -10 6 0 10 5 10 10 0 6 -4 10 -10 10 -5 0
-10 -4 -10 -10z"/>
<path d="M1270 2491 c0 -5 5 -13 10 -16 6 -3 10 -2 10 4 0 5 -4 13 -10 16 -5
3 -10 2 -10 -4z"/>
<path d="M1260 2451 c0 -6 4 -12 10 -16 5 -3 7 -12 4 -19 -4 -12 32 -86 42
-86 10 0 -4 87 -17 108 -14 22 -39 30 -39 13z m45 -51 c3 -5 1 -10 -4 -10 -6
0 -11 5 -11 10 0 6 2 10 4 10 3 0 8 -4 11 -10z"/>
<path d="M1350 2430 c0 -5 5 -10 10 -10 6 0 10 5 10 10 0 6 -4 10 -10 10 -5 0
-10 -4 -10 -10z"/>
<path d="M1217 2384 c-3 -4 0 -19 8 -35 10 -18 11 -30 5 -34 -6 -4 -10 -16 -9
-28 4 -43 -1 -67 -14 -67 -22 0 -13 -44 9 -48 10 -2 23 -8 28 -13 6 -5 23 -9
38 -9 15 0 28 -5 28 -10 0 -14 62 -3 117 22 84 37 33 48 -56 12 -54 -23 -59
-20 -53 36 3 35 1 50 -7 50 -8 0 -10 -8 -6 -20 4 -14 1 -22 -10 -26 -9 -4 -14
-13 -11 -20 4 -9 -2 -14 -16 -14 -20 0 -21 4 -16 73 3 39 3 87 1 105 -5 29
-21 41 -36 26z"/>
<path d="M1295 2300 c3 -5 11 -10 16 -10 6 0 7 5 4 10 -3 6 -11 10 -16 10 -6
0 -7 -4 -4 -10z"/>
<path d="M1366 2291 c-4 -7 -5 -15 -2 -18 9 -9 19 4 14 18 -4 11 -6 11 -12 0z"/>
<path d="M1190 2270 c0 -5 5 -10 10 -10 6 0 10 5 10 10 0 6 -4 10 -10 10 -5 0
-10 -4 -10 -10z"/>
<path d="M1370 2246 c0 -9 5 -16 10 -16 6 0 10 4 10 9 0 6 -4 13 -10 16 -5 3
-10 -1 -10 -9z"/>
<path d="M1165 2240 c3 -5 8 -10 11 -10 2 0 4 5 4 10 0 6 -5 10 -11 10 -5 0
-7 -4 -4 -10z"/>
<path d="M1095 2200 c3 -5 8 -10 11 -10 2 0 4 5 4 10 0 6 -5 10 -11 10 -5 0
-7 -4 -4 -10z"/>
<path d="M1485 2100 c3 -5 8 -10 11 -10 2 0 4 5 4 10 0 6 -5 10 -11 10 -5 0
-7 -4 -4 -10z"/>
<path d="M1185 1221 c-3 -5 -1 -12 5 -16 5 -3 10 1 10 9 0 18 -6 21 -15 7z"/>
<path d="M1323 1244 c-8 -20 13 -42 27 -28 12 12 3 44 -11 44 -5 0 -12 -7 -16
-16z"/>
<path d="M1646 1221 c-4 -5 -2 -12 3 -15 5 -4 12 -2 15 3 4 5 2 12 -3 15 -5 4
-12 2 -15 -3z"/>
<path d="M1908 1253 c7 -3 16 -2 19 1 4 3 -2 6 -13 5 -11 0 -14 -3 -6 -6z"/>
<path d="M2237 1253 c-13 -12 -7 -43 8 -43 9 0 15 9 15 25 0 24 -10 32 -23 18z"/>
<path d="M1484 725 c-9 -22 22 -53 37 -38 15 15 7 47 -14 51 -9 2 -20 -4 -23
-13z"/>
</g>
</svg>
